<svg width="1024" height="1024" viewBox="0 0 1024 1024" fill="none" xmlns="http://www.w3.org/2000/svg">

  
  <rect width="1024" height="1024" rx="184" fill="#162428"></rect>

  
  <g stroke="#4ecdc0" stroke-width="52" stroke-linecap="round" stroke-linejoin="round" fill="none">
    <polyline points="140,290 44,512 140,734"></polyline>
    <polyline points="884,290 980,512 884,734"></polyline>
  </g>

  
  <g fill="#edeae2">
    
    <path d="M310 1024 L310 680 Q308 640 360 620 L664 620 Q716 640 714 680 L714 1024 Z"></path>
    
    <rect x="280" y="248" width="464" height="400" rx="48"></rect>
    
    <path d="M324 256 L296 88 Q292 56 326 50 L388 46 Q422 48 418 80 L398 256 Z"></path>
    
    <path d="M590 254 L576 88 Q572 56 606 52 L664 50 Q698 50 694 84 L674 254 Z"></path>
    
    <rect x="730" y="320" width="80" height="134" rx="24"></rect>
  </g>

  
  <ellipse cx="644" cy="366" rx="32" ry="34" fill="#162428"></ellipse>
  <ellipse cx="654" cy="354" rx="13" ry="13" fill="#edeae2"></ellipse>

  
  <ellipse cx="368" cy="376" rx="22" ry="23" fill="#162428" opacity="0.5"></ellipse>

  
  <ellipse cx="792" cy="434" rx="11" ry="13" fill="#162428" opacity="0.45"></ellipse>

</svg>